<?xml version="1.0" encoding="utf-8"?>
<!-- Generator: Adobe Illustrator 16.0.0, SVG Export Plug-In . SVG Version: 6.00 Build 0)  -->
<!DOCTYPE svg PUBLIC "-//W3C//DTD SVG 1.1//EN" "http://www.w3.org/Graphics/SVG/1.1/DTD/svg11.dtd">
<svg version="1.1" id="Layer_1" xmlns="http://www.w3.org/2000/svg" xmlns:xlink="http://www.w3.org/1999/xlink" x="0px" y="0px"
	 width="1200px" height="300px" viewBox="0 0 1200 300" enable-background="new 0 0 1200 300" xml:space="preserve">
<rect x="300" fill="#3D3D3D" width="100" height="100"/>
<rect x="400" fill="#424242" width="100" height="100"/>
<rect x="600" fill="#4C4C4C" width="100" height="100"/>
<rect x="900" fill="#474747" width="100" height="100"/>
<rect x="700" y="100" fill="#565656" width="100" height="100"/>
<rect x="1100" fill="#3D3D3D" width="100" height="100"/>
<rect x="700" fill="#515151" width="100" height="100"/>
<rect x="800" fill="#4C4C4C" width="100" height="100"/>
<rect x="700" y="200" fill="#5B5B5B" width="100" height="100"/>
<rect x="800" y="100" fill="#515151" width="100" height="100"/>
<rect x="600" y="100" fill="#515151" width="100" height="100"/>
<rect x="500" y="100" fill="#4C4C4C" width="100" height="100"/>
<rect x="900" y="100" fill="#4C4C4C" width="100" height="100"/>
<rect x="400" y="100" fill="#474747" width="100" height="100"/>
<rect x="200" y="100" fill="#3D3D3D" width="100" height="100"/>
<rect x="1000" y="100" fill="#474747" width="100" height="100"/>
<rect x="600" y="200" fill="#565656" width="100" height="100"/>
<rect x="800" y="200" fill="#565656" width="100" height="100"/>
<rect x="500" y="200" fill="#515151" width="100" height="100"/>
<rect x="400" y="200" fill="#4C4C4C" width="100" height="100"/>
<rect x="300" y="200" fill="#474747" width="100" height="100"/>
<rect x="100" y="200" fill="#3D3D3D" width="100" height="100"/>
<rect x="200" y="200" fill="#424242" width="100" height="100"/>
<rect x="900" y="200" fill="#515151" width="100" height="100"/>
<rect x="1000" y="200" fill="#4C4C4C" width="100" height="100"/>
<rect x="1100" y="200" fill="#474747" width="100" height="100"/>
<rect y="100" fill="#3D3D3D" width="100" height="100"/>
<rect x="100" fill="#333333" width="100" height="100"/>
<rect y="100" fill="#333333" width="100" height="100"/>
<rect fill="#2D2D2D" width="100" height="100"/>
</svg>
